<svg xmlns="http://www.w3.org/2000/svg" width="406.666" height="604.224" viewBox="0 0 406.666 604.224">
  <g id="Group_6" data-name="Group 6" transform="translate(-820.017 -178.359)">
    <path id="XMLID_386_" d="M626.918,841.014h0a10.233,10.233,0,0,1-10.2,10.2H296.6a10.233,10.233,0,0,1-10.2-10.2h0a10.233,10.233,0,0,1,10.2-10.2h96.416a10.233,10.233,0,0,0,10.2-10.2h0a10.233,10.233,0,0,0-10.2-10.2h-9.608a10.233,10.233,0,0,1-10.2-10.2h0a10.233,10.233,0,0,1,10.2-10.2H581.09a10.233,10.233,0,0,1,10.2,10.2h0a10.233,10.233,0,0,1-10.2,10.2H558.9a10.233,10.233,0,0,0-10.2,10.2h0a10.233,10.233,0,0,0,10.2,10.2h57.816A10.233,10.233,0,0,1,626.918,841.014Z" transform="translate(565.246 -68.634)" fill="#898386" opacity="0.45"/>
    <path id="XMLID_385_" d="M655.866,384.978h0A20.538,20.538,0,0,0,635.29,364.4H549.757a20.538,20.538,0,0,1-20.576-20.576h0a20.538,20.538,0,0,1,20.576-20.576h20.151a20.538,20.538,0,0,0,20.576-20.576h0A20.538,20.538,0,0,0,569.908,282.1H345.786a20.538,20.538,0,0,0-20.576,20.576h0a20.538,20.538,0,0,0,20.576,20.576h21.6a20.538,20.538,0,0,1,20.576,20.576h0A20.538,20.538,0,0,1,367.382,364.4H298.6a20.538,20.538,0,0,0-20.576,20.576h0A20.538,20.538,0,0,0,298.6,405.554h5.952a20.538,20.538,0,0,1,20.576,20.576h0A20.538,20.538,0,0,1,304.55,446.7H269.776A20.538,20.538,0,0,0,249.2,467.281h0a20.538,20.538,0,0,0,20.576,20.576h78.731a20.538,20.538,0,0,1,20.576,20.576h0a20.538,20.538,0,0,1-20.576,20.576H316.964a20.538,20.538,0,0,0-20.576,20.576h0a20.538,20.538,0,0,0,20.576,20.576h38.345a20.538,20.538,0,0,1,20.576,20.576h0a20.538,20.538,0,0,1-20.576,20.576h-2.466a20.538,20.538,0,0,0-20.576,20.576h0a20.538,20.538,0,0,0,20.576,20.576H558.77a20.538,20.538,0,0,0,20.576-20.576h0A20.538,20.538,0,0,0,558.77,611.31H541.085a20.538,20.538,0,0,1-20.576-20.576h0a20.538,20.538,0,0,1,20.576-20.576H635.29a20.538,20.538,0,0,0,20.576-20.576h0a20.538,20.538,0,0,0-20.576-20.576H611.144a20.538,20.538,0,0,1-20.576-20.576h0a20.538,20.538,0,0,1,20.576-20.576h14.879A20.538,20.538,0,0,0,646.6,467.281h0A20.538,20.538,0,0,0,626.023,446.7H578.665a20.538,20.538,0,0,1-20.576-20.576h0a20.538,20.538,0,0,1,20.576-20.576H635.29A20.538,20.538,0,0,0,655.866,384.978ZM450.45,446.79H432.68A20.538,20.538,0,0,1,412.1,426.214h0a20.538,20.538,0,0,1,20.576-20.576h17.77a20.538,20.538,0,0,1,20.576,20.576h0A20.538,20.538,0,0,1,450.45,446.79Z" transform="translate(570.817 7.434)" fill="#a9dbed" opacity="0.35"/>
    <path id="XMLID_594_" d="M498.3,404.681c.34,11.818-.425,17.43-.425,17.43.765.765.935.85,1.871.85-1.19.34-2.551.68-2.551,3.826,0,11.053-.255,64.958-1.871,77.286-10.118-1.615-22.021.085-29.078-.68-9.608-1.105-7.227-10.033-5.782-12.413,27.718-45.147,29.248-65.893,29.248-65.893a17.262,17.262,0,0,1,1.02-3.486,37.972,37.972,0,0,0,.17-11.9,60.134,60.134,0,0,0-3.911-12.073,1.175,1.175,0,0,0-.34-.255,14.079,14.079,0,0,1-5.952-9.778v-.17a3.579,3.579,0,0,1,3.061-4.166l2.381-.255a11.716,11.716,0,0,0,6.972,11.138c5.1,2.126,10.968.085,12.753-1.871.34,1.615-1.7,4.336-4.336,6.207A7.582,7.582,0,0,0,498.3,404.681Z" transform="translate(539.38 -7.678)" fill="#db485f" opacity="0.51"/>
    <rect id="XMLID_557_" width="16.58" height="27.037" transform="translate(1033.255 335.531)" fill="#ffa578"/>
    <rect id="XMLID_553_" width="8.332" height="14.199" transform="translate(1033.255 335.531)" fill="#f49971"/>
    <path id="XMLID_544_" d="M500,346.913a38.928,38.928,0,0,0,16.58-3.316v-7.4H500Z" transform="translate(533.255 -0.669)" fill="#ed8c6b"/>
    <path id="XMLID_535_" d="M585.5,391.741l28.823-52.629L600.893,331.8l-25.677,46.933a2.654,2.654,0,0,1-4.081.765l-34.859-29.843a7.667,7.667,0,0,0-10.8.85h0a7.667,7.667,0,0,0,.85,10.8L566.119,395.4l3.4,2.891a9,9,0,0,0,13.519-2.3Z" transform="translate(529.713 -0.01)" fill="#ffa578"/>
    <path id="XMLID_527_" d="M585.5,391.741l28.823-52.629L600.893,331.8l-25.677,46.933a2.654,2.654,0,0,1-4.081.765l-34.859-29.843a7.667,7.667,0,0,0-10.8.85h0a7.667,7.667,0,0,0,.85,10.8L566.119,395.4l3.4,2.891a9,9,0,0,0,13.519-2.3Z" transform="translate(529.713 -0.01)" fill="#ffa578"/>
    <path id="XMLID_522_" d="M530.581,383.988l-40.556,2.041a.657.657,0,0,1-.68-.6L487.9,357.12a4.429,4.429,0,0,1,4.166-4.591L522.419,351a7.137,7.137,0,0,1,7.482,6.8l1.275,25.592A.639.639,0,0,1,530.581,383.988Z" transform="translate(535.068 -2.884)" fill="#ffa578"/>
    <path id="XMLID_519_" d="M569.147,383.834a7.624,7.624,0,0,0,11.648-2.126l25.762-47.018L601.2,331.8l-25.677,46.933a2.654,2.654,0,0,1-4.081.765l-34.859-29.843c-2.466-2.126-5.271-2.211-10.883-1.445,0,0,2.891-.34,5.952,2.466C542.535,360.538,569.147,383.834,569.147,383.834Z" transform="translate(529.406 -0.01)" fill="#f49971"/>
    <path id="XMLID_505_" d="M487.947,354.44a7.712,7.712,0,0,0-10.713,1.615l-34.6,47.188a7.74,7.74,0,0,0-1.36,3.231,7.6,7.6,0,0,0,1.19,5.952l24.572,35.625a7.64,7.64,0,0,0,10.628,1.956h0a7.64,7.64,0,0,0,1.956-10.628l-21.511-31.2,31.459-42.937A7.7,7.7,0,0,0,487.947,354.44Z" transform="translate(542.077 -3.18)" fill="#ffa578"/>
    <path id="XMLID_496_" d="M460.768,410.185l25.167-33.5-1.53-3.911a1.131,1.131,0,0,0-1.956-.255l-25.167,34.264-1.785,2.381a2.941,2.941,0,0,0-.085,3.4l1.7,2.466,24.572,35.71a7.707,7.707,0,0,0-.085-8.587L460.683,411.8A1.568,1.568,0,0,1,460.768,410.185Z" transform="translate(540.008 -6.041)" fill="#f49971"/>
    <path id="XMLID_493_" d="M467.335,522.5c-2.381,0-7.652,5.867-9.353,10.033s18.875,16.154,43.617,19.9,64.788,7.652,81.537,3.571,31.2-17.855,27.292-22.446c-1.956-2.126-32.564-11.053-32.564-11.053Z" transform="translate(539.563 -28.571)" fill="#ac3942"/>
    <path id="XMLID_464_" d="M563.571,791.932s-1.36,9.182-2.3,19.045c-1.445,15.049,8.587,4.761,8.587,4.761s11.308-9.1,12.583-27.207S564.591,786.66,563.571,791.932Z" transform="translate(524.099 -67.164)" fill="#ff4c63"/>
    <path id="XMLID_457_" d="M432.488,775.007s-4.421,17.855-1.105,30.013a3.352,3.352,0,0,0,4.676,2.126c7.482-3.486,13.6-15.049,15.134-21.511C452.894,778.153,440.565,762.934,432.488,775.007Z" transform="translate(543.717 -65.714)" fill="#ff4c63"/>
    <ellipse id="XMLID_454_" cx="57.816" cy="53.054" rx="57.816" ry="53.054" transform="matrix(0.998, -0.059, 0.059, 0.998, 978.297, 210.641)" fill="#ac3942"/>
    <circle id="XMLID_445_" cx="29.758" cy="29.758" r="29.758" transform="translate(1009.109 182.659)" fill="#ac3942"/>
    <path id="XMLID_441_" d="M551.25,271s.425,18.45-4.421,27.8-9.863,19.555-5.612,27.633c6.037,11.478,22.956,5.356,22.956,5.356-4.676.255-18.79.85-19.3-8.077s12.753-31.8,12.583-33.5C557.457,288.514,557.2,270.659,551.25,271Z" transform="translate(527.322 9.097)" fill="#cd3b43"/>
    <path id="XMLID_428_" d="M512.966,152.327s-25-1.02-39.366,25.592C474.365,167.036,483.888,146.63,512.966,152.327Z" transform="translate(537.209 27.017)" fill="#ac3942"/>
    <path id="XMLID_423_" d="M472.957,177.15a29.743,29.743,0,0,1,56.625-.17h0c-5.527-5.527-19.725-6.887-32.649,5.952-8.587,8.587-17.6,15.134-20.406,19.81A30.279,30.279,0,0,1,472.957,177.15Z" transform="translate(537.512 26.255)" fill="#cd3b43"/>
    <path id="XMLID_415_" d="M459.676,280.4s.425,18.45-4.421,27.8-9.523,15.474-5.612,25.847c3.911,10.458,24.572,8.077,25.167,7.227-8.757.68-23.551-4.506-22.446-13.434,1.785-13.434,13.689-26.527,13.6-28.228S465.628,280.059,459.676,280.4Z" transform="translate(541.015 7.689)" fill="#ac3942"/>
    <path id="XMLID_412_" d="M503.7,327.708h0c-11.9.68-27.548-7.227-36.73-21.766-10.883-16.495-17.77-42.257-5.867-58.921,25.167-1.445,50.334-2.976,75.5-4.421,13.689,15.134,9.863,41.576,1.105,59.261C530.224,317.25,515.6,327.028,503.7,327.708Z" transform="translate(540.016 13.349)" fill="#ffa578"/>
    <path id="XMLID_408_" d="M458.819,302.648l-1.53.255a4.152,4.152,0,0,1-4.761-3.486l-2.636-16.409a4.152,4.152,0,0,1,3.486-4.761l1.53-.255a4.152,4.152,0,0,1,4.761,3.486l2.636,16.409A4.244,4.244,0,0,1,458.819,302.648Z" transform="translate(540.767 8.056)" fill="#f49971"/>
    <path id="XMLID_405_" d="M555.178,302.648l1.53.255a4.152,4.152,0,0,0,4.761-3.486l2.636-16.409a4.152,4.152,0,0,0-3.486-4.761l-1.53-.255a4.152,4.152,0,0,0-4.761,3.486l-2.636,16.409A4.312,4.312,0,0,0,555.178,302.648Z" transform="translate(525.52 8.056)" fill="#ed8c6b"/>
    <path id="XMLID_402_" d="M503.7,327.708h0c-11.9.68-27.548-7.227-36.73-21.766-10.883-16.495-17.77-42.257-5.867-58.921,25.167-1.445,50.334-2.976,75.5-4.421,13.689,15.134,9.863,41.576,1.105,59.261C530.224,317.25,515.6,327.028,503.7,327.708Z" transform="translate(540.016 13.349)" fill="#ffa578"/>
    <path id="XMLID_399_" d="M538.375,242.6c-5.356.34-66.233,9.693-71.675,10.033,1.7,10.033,48.633,1.02,52.374,7.227,7.227,11.9,4,27.8,1.02,40.131-3.4,14.029-13.689,25.677-24.487,26.612a31.526,31.526,0,0,0,9.948,1.19h0c11.9-.68,26.527-10.458,33.924-25.932C548.237,284.176,552.063,257.734,538.375,242.6Z" transform="translate(538.242 13.349)" fill="#f49971"/>
    <path id="XMLID_396_" d="M547.092,265.628a49.835,49.835,0,0,0,8.5-30.778c-1.7-29.248-28.993-51.439-60.877-49.569a60.236,60.236,0,0,0-41.576,19.725A23.793,23.793,0,0,0,450.08,232.3a22.17,22.17,0,0,0,1.445,2.381s7.312,13.179,30.183,11.818C502.624,245.307,535.7,239.61,547.092,265.628Z" transform="translate(541.174 21.95)" fill="#cd3b43"/>
    <g id="XMLID_393_" transform="translate(1035.211 317.931)">
      <path id="XMLID_395_" d="M502.3,315.5s.34.085.85.255,1.275.34,2.126.6c.425.085.85.255,1.36.34a7.2,7.2,0,0,0,1.445.34c.51.085.935.255,1.445.34s.935.17,1.445.255.935.085,1.445.17.935,0,1.445.085a8.247,8.247,0,0,0,1.445-.085c.51,0,.935-.085,1.36-.085.425-.085.85,0,1.19-.085s.68-.085.935-.17c.255,0,.51-.085.68-.085h.255a.264.264,0,0,1-.085.17c-.085.085-.17.34-.34.6a4.905,4.905,0,0,1-.68.85,5.553,5.553,0,0,1-1.02.935,7.707,7.707,0,0,1-1.36.935,7.9,7.9,0,0,1-.85.425c-.17.085-.255.17-.425.17l-.425.085a7.243,7.243,0,0,1-1.956.34,4.139,4.139,0,0,0-1.02.085c-.34,0-.68-.085-1.02-.085a17.414,17.414,0,0,1-2.041-.425,8.677,8.677,0,0,1-1.786-.765c-.51-.34-1.105-.68-1.53-1.02a15.2,15.2,0,0,1-1.19-1.105,7.676,7.676,0,0,1-1.36-2.041A5.731,5.731,0,0,1,502.3,315.5Z" transform="translate(-502.3 -315.5)" fill="#e24249"/>
    </g>
    <ellipse id="XMLID_390_" cx="12.753" cy="14.794" rx="12.753" ry="14.794" transform="translate(1020.084 362.734) rotate(-1.919)" fill="#ffa578"/>
    <ellipse id="XMLID_387_" cx="12.753" cy="14.794" rx="12.753" ry="14.794" transform="translate(1044.06 360.525) rotate(-1.919)" fill="#ffa578"/>
    <path id="XMLID_384_" d="M528.164,545.9s-6.547,66.658-12.924,77.711-51.864,83.323-56.115,98.2-5.952,22.106-8.077,31.458-22.956,8.927-19.13-8.927,16.154-29.758,19.98-40.386,8.927-42.512,20.406-62.492,22.106-23.807,24.232-32.309-6.8-57.816-6.8-57.816Z" transform="translate(543.522 -32.075)" fill="#ffa578"/>
    <g id="XMLID_380_" transform="translate(979.861 721.366)">
      <path id="XMLID_381_" d="M437.2,794.421c5.356,3.061,13.179,1.02,14.624-4.421C448.423,793.4,442.556,795.867,437.2,794.421Z" transform="translate(-437.2 -790)" fill="#f49971"/>
    </g>
    <path id="XMLID_373_" d="M519.112,543.5c-1.785,24.827-2.126,67.934-7.312,77.031-6.462,11.223-41.066,65.893-55.265,99.647-2.126,5.016,5.526,3.741,6.207,1.275,4.251-14.879,49.739-87.149,56.115-98.2s12.924-77.711,12.924-77.711Z" transform="translate(539.821 -31.716)" fill="#f49971"/>
    <path id="XMLID_363_" d="M546.7,546.412s8.757,46.168,14.709,61.472,6.8,22.106,6.8,28.908,1.19,31.8,1.19,48.8,2.636,20.065-1.19,41.916-6.8,25.337-6.8,28.483-1.275,9.693,1.7,12.668,14.624.34,17.175-16.069.17-29.588,1.7-41.236,12.583-45.742,9.523-71.59-8.077-31.884-8.077-44.212S583,540.8,583,540.8Z" transform="translate(526.261 -31.311)" fill="#ffa578"/>
    <path id="XMLID_360_" d="M569.1,807.389c4.421.34,11.818-3.571,14.284-15.389C579.558,800.247,574.882,805.774,569.1,807.389Z" transform="translate(522.906 -68.933)" fill="#f49971"/>
    <path id="XMLID_357_" d="M596.556,639.767c-2.976-25.932-8.077-31.884-8.077-44.212s-.425-54.755-.425-54.755l-8.162,1.275c.17,15.474.34,40.981.34,50.589,0,14.2,5.867,21.086,9.268,50.929s-8.332,62.662-9.608,82.983c-.085,1.02-.17,5.016.765,6.377,1.956,2.976,5.867,2.976,5.867-1.53-.085-7.227-.34-13.859.425-19.98C588.479,699.793,599.532,665.784,596.556,639.767Z" transform="translate(521.297 -31.311)" fill="#f49971"/>
    <path id="XMLID_354_" d="M458.657,525.66c-1.956,6.292-2.721-6.462,26.527,13.6,23.977,16.495,47.1,35.285,95.821,3.231,25.932-17.09,30.1-11.393,30.1-11.393s.6-1.275-.935-4.251c-4.506-9.1-12.5-9.182-14.454-11.138S562.3,489.1,562.3,489.1l-89.955,22.786C472.261,511.886,460.7,519.368,458.657,525.66Z" transform="translate(539.568 -23.568)" fill="#d3405c"/>
    <path id="XMLID_352_" d="M635.7,325.8Z" transform="translate(512.932 0.889)" fill="#9c9"/>
    <circle id="XMLID_349_" cx="14.879" cy="14.879" r="14.879" transform="translate(1124.995 318.526)" fill="#f79b72"/>
    <circle id="XMLID_346_" cx="9.353" cy="9.353" r="9.353" transform="translate(1128.141 322.438)" fill="#ffa578"/>
    <path id="XMLID_343_" d="M448.568,229.3s12.158,3.146,12.839,14.114c.34,5.952-4.676,15.644-16.835,18.28-10.628,2.3-19.385,5.186-24.572,13.6.425-6.8,2.976-15.3,17.175-20.406S455.2,242.564,448.568,229.3Z" transform="translate(545.237 15.341)" fill="#e24249"/>
    <path id="XMLID_340_" d="M509.8,373.65a9.867,9.867,0,0,1,4.591,6.887c.425-4.336,1.956-7.227,2.806-7.737a5.459,5.459,0,0,0-3.146,3.911C513.116,374.671,509.8,373.65,509.8,373.65Z" transform="translate(531.787 -6.15)" fill="#f49971"/>
    <path id="XMLID_337_" d="M531.594,378.4l-44.042,4.166a3.566,3.566,0,0,0-3.061,4.166v.17c1.02,7.142,6.972,12.413,13.6,12.073,5.952-.34,10.628-4.846,12.073-10.713,2.381,5.7,7.992,9.438,14.114,8.332,5.356-.935,9.608-5.526,10.713-11.308a18.589,18.589,0,0,0,.255-3.061A3.571,3.571,0,0,0,531.594,378.4Z" transform="translate(535.585 -6.987)" fill="#ff4c63"/>
    <g id="XMLID_335_" transform="translate(998.482 380.338)">
      <path id="XMLID_336_" d="M529.584,420.018s-3.4-8.5-3.4-12.073a86.461,86.461,0,0,1,2.551-19.045H506.373l-21.256,4.761s5.186,12.668,5.782,16.92c1.275,8.417-.68,13.944-.68,13.944s-2.041,22.191-29.758,67.338c-1.445,2.381-3.826,11.308,5.782,12.413,11.818,1.36,36.9-4.336,45.147,10.033,11.648,20.236,58.326-17.94,70.059-3.741,9.608,11.648,20.916.255,27.378-8.672a10.33,10.33,0,0,0-1.956-14.284c-5.016-4-12.583-9.778-22.616-16.92C558.747,452.582,529.584,420.018,529.584,420.018Z" transform="translate(-459.102 -388.9)" fill="#ff4c63"/>
    </g>
    <path id="XMLID_333_" d="M478.747,480.2c1.956-10.2,13.349-49.569,15.049-58.5.085-.34.85-.6.935-.765,0-.34-.68-.68-.68-1.02a86.093,86.093,0,0,0-.51-15.134c-.34-2.466.935-5.782,3.316-6.377,2.041-.51,7.057-3.061,8.162-5.7-2.891,4.081-13.434,5.782-18.365.935-3.486-3.486-3.741-7.482-4-9.948a3.912,3.912,0,0,0-1.956,3.826v.17a14.372,14.372,0,0,0,5.952,9.778c.085.085.255.17.34.255a60.134,60.134,0,0,1,3.911,12.073,37.972,37.972,0,0,1-.17,11.9c-.425,1.53-1.02,4.931-1.02,4.931s-3.146,17.515-29.248,64.448c-1.36,2.466-3.826,11.308,5.782,12.413a78.726,78.726,0,0,0,9.182.17C476.366,498.141,477.727,485.218,478.747,480.2Z" transform="translate(539.374 -7.783)" fill="#ed4a61"/>
    <path id="XMLID_332_" d="M536.453,280.72a3.146,3.146,0,0,0-3.231,0c-1.445-1.956-3.486-3.061-5.442-2.636-2.3.51-3.826,2.806-4.081,5.7a7.952,7.952,0,0,1,4.166-2.806,7.325,7.325,0,0,1,5.271,1.105c.085,0,.17.085.255,0a3.893,3.893,0,0,1,3.826-.255,4.716,4.716,0,0,1,.68.51A3.352,3.352,0,0,0,536.453,280.72Z" transform="translate(529.706 8.049)" fill="#422725" opacity="0.69"/>
    <path id="XMLID_331_" d="M482.19,283.851a3.4,3.4,0,0,1,3.231-.425c1.19-2.126,3.061-3.486,5.1-3.231,2.3.17,4.166,2.3,4.761,5.186a7.226,7.226,0,0,0-4.506-2.3,7.309,7.309,0,0,0-5.1,1.7.312.312,0,0,1-.255.085,4.006,4.006,0,0,0-3.826.17,1.987,1.987,0,0,0-.6.6A3.192,3.192,0,0,1,482.19,283.851Z" transform="translate(536.101 7.724)" fill="#422725" opacity="0.69"/>
    <circle id="XMLID_327_" cx="14.879" cy="14.879" r="14.879" transform="translate(1008.513 428.887)" fill="#ffa578"/>
    <circle id="XMLID_324_" cx="14.879" cy="14.879" r="14.879" transform="translate(1008.513 428.887)" fill="#ffa578"/>
    <path id="XMLID_321_" d="M489.413,446.256a14.734,14.734,0,0,0-12.413,3.4c.34,0,.6.085.935.085a14.437,14.437,0,0,1,6.122,25.677,14.825,14.825,0,1,0,5.356-29.163Z" transform="translate(536.7 -17.114)" fill="#f79b72"/>
    <path id="XMLID_320_" d="M593.15,469.133c-24.572-17.515-52.629-48.378-54.585-50.5-.085-.085-.17-.17-.17-.255-.425-1.19-3.316-8.672-3.316-11.988a77.337,77.337,0,0,1,1.36-13.6.649.649,0,0,1,.17-.425,15.033,15.033,0,0,0,1.36-1.871h0a15.157,15.157,0,0,0,2.041-5.271,18.589,18.589,0,0,0,.255-3.061,3.477,3.477,0,0,0-3.656-3.656l-2.721.255a10.007,10.007,0,0,1,.6,1.7s.255,1.02.425,1.956a11.186,11.186,0,0,1-3.231,8.077c-3.146,2.976-8.417,3.571-13.179,1.36a20.767,20.767,0,0,0,3.4,2.466,19.2,19.2,0,0,0,4.506,1.785,4.691,4.691,0,0,1,4,4.081,69.342,69.342,0,0,1,.51,7.057,61.548,61.548,0,0,0,.85,9.608c.085.425-.935,1.02-.85,1.445.085.34,1.02-.085,1.02.17.255,1.19.68,2.806,1.02,3.911,1.36,4.081,35.965,59.006,57.816,87.234a.083.083,0,0,0,.085.085c9.608,10.628,20.661-.765,27.037-9.608a10.148,10.148,0,0,0-2.041-13.859C610.92,482.226,603.268,476.36,593.15,469.133Z" transform="translate(530.484 -7.002)" fill="#db485f" opacity="0.68"/>
    <path id="XMLID_317_" d="M546.725,232.581c-5.526,12.583-28.993,4.506-50.334,2.466-30.863-2.976-37.92-20.661-32.394-33.244s32.819-21,52.459-12.328C536.1,198.062,552.252,220,546.725,232.581Z" transform="translate(538.904 21.838)" fill="#e24249"/>
    <ellipse id="XMLID_314_" cx="11.563" cy="19.895" rx="11.563" ry="19.895" transform="matrix(0.264, -0.965, 0.965, 0.264, 1013.371, 231.651)" fill="#ef5964" opacity="0.87"/>
    <ellipse id="XMLID_311_" cx="11.393" cy="5.952" rx="11.393" ry="5.952" transform="matrix(0.829, -0.559, 0.559, 0.829, 1017.686, 196.756)" fill="#ef5964" opacity="0.87"/>
    <ellipse id="XMLID_309_" cx="0.935" cy="3.571" rx="0.935" ry="3.571" transform="translate(975.72 731.486) rotate(-8.476)" fill="#ffa6b5"/>
    <ellipse id="XMLID_308_" cx="3.571" cy="0.935" rx="3.571" ry="0.935" transform="translate(1087.021 749.25) rotate(-89.645)" fill="#ffa6b5"/>
  </g>
</svg>
