<svg xmlns="http://www.w3.org/2000/svg" width="28.785" height="25.489" viewBox="0 0 28.785 25.489">
  <g id="upload" transform="translate(0 -24)">
    <g id="Group_2" data-name="Group 2" transform="translate(0 24)">
      <g id="Group_1" data-name="Group 1">
        <circle id="Ellipse_65" data-name="Ellipse 65" cx="1.978" cy="1.978" r="1.978" transform="translate(8.872 6.29)" fill="#fff"/>
        <path id="Path_6" data-name="Path 6" d="M27.082,39.546a6.09,6.09,0,0,0-3.406-1.621V27.873a3.954,3.954,0,0,0-1.126-2.747A3.838,3.838,0,0,0,19.8,24H3.873a3.954,3.954,0,0,0-2.747,1.126A3.838,3.838,0,0,0,0,27.873v16.4a3.954,3.954,0,0,0,1.126,2.747,3.838,3.838,0,0,0,2.747,1.126H19.282a5.811,5.811,0,0,0,7.8-8.6ZM1.456,27.873A2.3,2.3,0,0,1,2.17,26.2a2.41,2.41,0,0,1,1.7-.714H19.8A2.439,2.439,0,0,1,22.22,27.9v8.57L18.155,32.4a.738.738,0,0,0-1.044,0l-6.125,6.153L6.839,34.382a.738.738,0,0,0-1.044,0l-4.34,4.395Zm2.39,18.87v-.055a2.41,2.41,0,0,1-1.7-.714,2.507,2.507,0,0,1-.687-1.7V40.864l4.862-4.889,4.147,4.147a.764.764,0,0,0,1.044,0l6.125-6.153,4.01,4.038-.247.082a2.551,2.551,0,0,0-.357.11c-.11.027-.22.082-.33.11a.822.822,0,0,0-.22.11,2.552,2.552,0,0,0-.275.137L19.8,38.8c-.082.055-.137.082-.22.137-.055.027-.082.055-.137.082a3.314,3.314,0,0,0-.659.577,5.81,5.81,0,0,0-1.7,4.12,6.038,6.038,0,0,0,.137,1.209c.027.11.055.192.082.3.082.275.165.549.275.824v.027a5.038,5.038,0,0,0,.357.659Zm22.165,0a4.345,4.345,0,0,1-6.07.055c-.11-.11-.22-.247-.33-.357-.082-.082-.165-.192-.247-.275a2.608,2.608,0,0,1-.275-.467c-.055-.11-.11-.192-.165-.3a2.32,2.32,0,0,1-.137-.467c-.027-.11-.082-.247-.11-.357a4.546,4.546,0,0,1-.082-.879,4.409,4.409,0,0,1,1.263-3.076,4.246,4.246,0,0,1,3.076-1.263,4.409,4.409,0,0,1,3.076,1.263,4.293,4.293,0,0,1,1.263,3.076A4.393,4.393,0,0,1,26.011,46.742Z" transform="translate(0 -24)" fill="#fff"/>
        <path id="Path_7" data-name="Path 7" d="M301.553,264.62a.959.959,0,0,0-.247-.165.8.8,0,0,0-.247-.055H301a.8.8,0,0,0-.247.055.649.649,0,0,0-.247.165l-1.7,1.7a.738.738,0,0,0,1.044,1.044l.439-.439v3.021a.742.742,0,1,0,1.483,0v-3.021l.439.439a.738.738,0,0,0,1.044-1.044Z" transform="translate(-278.096 -247.893)" fill="#fff"/>
      </g>
    </g>
  </g>
</svg>
